<?xml version="1.0" standalone="no"?>
<!DOCTYPE svg PUBLIC "-//W3C//DTD SVG 20010904//EN"
 "http://www.w3.org/TR/2001/REC-SVG-20010904/DTD/svg10.dtd">
<svg version="1.0" xmlns="http://www.w3.org/2000/svg"
 width="90.000000pt" height="90.000000pt" viewBox="0 0 90.000000 90.000000"
 preserveAspectRatio="xMidYMid meet">

<g transform="translate(0.000000,90.000000) scale(0.100000,-0.100000)"
fill="#000000" stroke="none">
<path d="M110 760 c-20 -20 -20 -31 -18 -328 l3 -307 355 0 355 0 3 307 c2
297 2 308 -18 328 -19 19 -33 20 -340 20 -307 0 -321 -1 -340 -20z m640 -355
l0 -225 -300 0 -300 0 0 225 0 225 300 0 300 0 0 -225z"/>
<path d="M239 511 c-26 -26 -29 -36 -29 -91 0 -55 3 -65 29 -91 40 -39 82 -39
122 0 38 38 38 61 0 61 -17 0 -31 -6 -35 -16 -3 -9 -15 -14 -28 -12 -21 3 -23
9 -23 58 0 49 2 55 23 58 13 2 25 -3 28 -12 8 -22 64 -22 64 0 0 28 -56 74
-90 74 -22 0 -41 -9 -61 -29z"/>
<path d="M574 526 c-3 -8 10 -62 28 -118 29 -85 38 -104 56 -106 36 -5 36 21
0 130 -29 85 -38 104 -56 106 -13 2 -25 -3 -28 -12z"/>
<path d="M454 496 c-10 -26 4 -48 28 -44 33 4 33 52 0 56 -13 2 -25 -3 -28
-12z"/>
<path d="M454 376 c-10 -26 4 -48 28 -44 33 4 33 52 0 56 -13 2 -25 -3 -28
-12z"/>
</g>
</svg>
