<?xml version="1.0" standalone="no"?>
<!DOCTYPE svg PUBLIC "-//W3C//DTD SVG 20010904//EN"
 "http://www.w3.org/TR/2001/REC-SVG-20010904/DTD/svg10.dtd">
<svg version="1.0" xmlns="http://www.w3.org/2000/svg"
 width="96.000000pt" height="96.000000pt" viewBox="0 0 96.000000 96.000000"
 preserveAspectRatio="xMidYMid meet">

<g transform="translate(0.000000,96.000000) scale(0.100000,-0.100000)"
fill="#000000" stroke="none">
<path d="M80 660 l0 -220 180 0 180 0 0 220 0 220 -180 0 -180 0 0 -220z m280
0 l0 -140 -100 0 -100 0 0 140 0 140 100 0 100 0 0 -140z"/>
<path d="M520 740 l0 -140 180 0 180 0 0 140 0 140 -180 0 -180 0 0 -140z
m280 0 l0 -60 -100 0 -100 0 0 60 0 60 100 0 100 0 0 -60z"/>
<path d="M520 300 l0 -220 180 0 180 0 0 220 0 220 -180 0 -180 0 0 -220z
m280 0 l0 -140 -100 0 -100 0 0 140 0 140 100 0 100 0 0 -140z"/>
<path d="M80 220 l0 -140 180 0 180 0 0 140 0 140 -180 0 -180 0 0 -140z m280
0 l0 -60 -100 0 -100 0 0 60 0 60 100 0 100 0 0 -60z"/>
</g>
</svg>
