<?xml version="1.0" standalone="no"?>
<!DOCTYPE svg PUBLIC "-//W3C//DTD SVG 20010904//EN"
 "http://www.w3.org/TR/2001/REC-SVG-20010904/DTD/svg10.dtd">
<svg version="1.0" xmlns="http://www.w3.org/2000/svg"
 width="100.000000pt" height="100.000000pt" viewBox="0 0 100.000000 100.000000"
 preserveAspectRatio="xMidYMid meet">

<g transform="translate(0.000000,100.000000) scale(0.100000,-0.100000)"
fill="#000000" stroke="none">
<path d="M589 990 c-9 -5 -85 -34 -169 -64 -84 -30 -162 -63 -172 -73 -26 -23
-88 -115 -118 -172 -14 -29 -20 -54 -16 -72 8 -42 66 -189 75 -189 3 0 15 13
24 30 10 16 36 44 58 62 21 17 39 40 39 50 0 10 17 34 38 53 34 33 40 35 82
29 25 -3 47 -7 48 -9 11 -10 -59 -80 -101 -101 -63 -33 -127 -91 -144 -132
-28 -68 23 -142 99 -142 47 0 87 19 149 71 26 21 75 50 110 64 134 53 182 110
250 293 17 45 41 95 55 111 29 35 30 51 3 85 -25 32 -145 90 -217 105 -63 13
-72 13 -93 1z"/>
<path d="M505 299 c-68 -56 -117 -79 -166 -79 -56 0 -104 25 -130 67 -19 31
-23 33 -32 18 -5 -9 -11 -42 -14 -73 -10 -114 80 -218 197 -230 133 -12 252
107 237 236 -6 48 -25 102 -36 102 -3 -1 -28 -19 -56 -41z"/>
</g>
</svg>
