<?xml version="1.0" standalone="no"?>
<!DOCTYPE svg PUBLIC "-//W3C//DTD SVG 20010904//EN"
 "http://www.w3.org/TR/2001/REC-SVG-20010904/DTD/svg10.dtd">
<svg version="1.0" xmlns="http://www.w3.org/2000/svg"
 width="90.000000pt" height="90.000000pt" viewBox="0 0 90.000000 90.000000"
 preserveAspectRatio="xMidYMid meet">

<g transform="translate(0.000000,90.000000) scale(0.100000,-0.100000)"
fill="#000000" stroke="none">
<path d="M365 821 c-79 -36 -125 -111 -125 -201 l0 -50 -40 0 c-27 0 -47 -7
-60 -20 -19 -19 -20 -33 -20 -220 0 -187 1 -201 20 -220 19 -19 33 -20 310
-20 277 0 291 1 310 20 19 19 20 33 20 220 0 187 -1 201 -20 220 -13 13 -33
20 -60 20 l-40 0 0 43 c0 69 -19 116 -63 161 -65 65 -154 83 -232 47z m155
-61 c49 -25 80 -81 80 -145 l0 -45 -150 0 -150 0 0 45 c0 125 113 199 220 145z
m18 -283 c18 -19 26 -37 26 -62 0 -31 -8 -44 -47 -80 -26 -23 -47 -48 -47 -54
0 -6 -13 -11 -30 -11 -46 0 -41 42 10 89 42 38 52 74 24 85 -31 12 -54 6 -70
-19 -16 -24 -57 -34 -68 -17 -9 15 28 76 54 90 40 21 117 10 148 -21z m-60
-289 c3 -22 -2 -29 -23 -34 -34 -8 -60 15 -50 45 5 18 13 22 38 19 26 -2 33
-8 35 -30z"/>
</g>
</svg>
