<?xml version="1.0" encoding="UTF-8" standalone="no"?>
<!-- Uploaded to: SVG Repo, www.svgrepo.com, Generator: SVG Repo Mixer Tools -->
<svg xmlns:dc="http://purl.org/dc/elements/1.1/"
     xmlns:cc="http://creativecommons.org/ns#"
     xmlns:rdf="http://www.w3.org/1999/02/22-rdf-syntax-ns#"
     xmlns:svg="http://www.w3.org/2000/svg"
     xmlns="http://www.w3.org/2000/svg"
     xmlns:xlink="http://www.w3.org/1999/xlink"
     width="128" height="128" version="1.1">
    <path d="M 42.9375 22.03125 C 40.773543 22.03125 39.03125 23.773543 39.03125 25.9375 L 39.03125 33.875 C 39.03125 36.03896 40.773543 37.78125 42.9375 37.78125 L 85.0625 37.78125 C 87.22646 37.78125 88.96875 36.03896 88.96875 33.875 L 88.96875 25.9375 C 88.96875 23.773543 87.22646 22.03125 85.0625 22.03125 L 42.9375 22.03125 z M 46.5 26.75 C 46.58526 26.7333 46.659723 26.75 46.75 26.75 L 56.3125 26.75 C 57.034718 26.75 57.625 27.309032 57.625 28.03125 L 57.625 31.75 C 57.625 32.47222 57.034718 33.0625 56.3125 33.0625 L 46.75 33.0625 C 46.027782 33.0625 45.4375 32.47222 45.4375 31.75 L 45.4375 28.03125 C 45.4375 27.399309 45.903187 26.866876 46.5 26.75 z M 42.9375 44.75 C 40.773543 44.75 39.03125 46.492293 39.03125 48.65625 L 39.03125 56.59375 C 39.03125 58.75771 40.773543 60.5 42.9375 60.5 L 85.0625 60.5 C 87.22646 60.5 88.96875 58.75771 88.96875 56.59375 L 88.96875 48.65625 C 88.96875 46.492293 87.22646 44.75 85.0625 44.75 L 42.9375 44.75 z M 46.5 49.46875 C 46.58526 49.45205 46.659723 49.46875 46.75 49.46875 L 56.3125 49.46875 C 57.034718 49.46875 57.625 50.027782 57.625 50.75 L 57.625 54.46875 C 57.625 55.19097 57.034718 55.78125 56.3125 55.78125 L 46.75 55.78125 C 46.027782 55.78125 45.4375 55.19097 45.4375 54.46875 L 45.4375 50.75 C 45.4375 50.118059 45.903187 49.585626 46.5 49.46875 z M 25.0625 54.5625 L 5.1875 64 L 25.0625 73.4375 L 25.0625 68.5 L 32.90625 68.5 C 34.04633 68.5 34.96875 67.577577 34.96875 66.4375 L 34.96875 61.5625 C 34.96875 60.422423 34.04633 59.5 32.90625 59.5 L 25.0625 59.5 L 25.0625 54.5625 z M 102.9375 54.5625 L 102.9375 59.5 L 95.125 59.5 C 93.98492 59.5 93.0625 60.422423 93.0625 61.5625 L 93.0625 66.4375 C 93.0625 67.577577 93.98492 68.5 95.125 68.5 L 102.9375 68.5 L 102.9375 73.4375 L 122.8125 64 L 102.9375 54.5625 z M 42.9375 67.5 C 40.773543 67.5 39.03125 69.242293 39.03125 71.40625 L 39.03125 79.34375 C 39.03125 81.50771 40.773543 83.25 42.9375 83.25 L 85.0625 83.25 C 87.22646 83.25 88.96875 81.50771 88.96875 79.34375 L 88.96875 71.40625 C 88.96875 69.242293 87.22646 67.5 85.0625 67.5 L 42.9375 67.5 z M 46.5 72.21875 C 46.58526 72.20205 46.659723 72.21875 46.75 72.21875 L 56.3125 72.21875 C 57.034718 72.21875 57.625 72.777782 57.625 73.5 L 57.625 77.21875 C 57.625 77.94097 57.034718 78.53125 56.3125 78.53125 L 46.75 78.53125 C 46.027782 78.53125 45.4375 77.94097 45.4375 77.21875 L 45.4375 73.5 C 45.4375 72.868059 45.903187 72.335626 46.5 72.21875 z M 42.9375 90.21875 C 40.773543 90.21875 39.03125 91.961043 39.03125 94.125 L 39.03125 102.0625 C 39.03125 104.22646 40.773543 105.96875 42.9375 105.96875 L 85.0625 105.96875 C 87.22646 105.96875 88.96875 104.22646 88.96875 102.0625 L 88.96875 94.125 C 88.96875 91.961043 87.22646 90.21875 85.0625 90.21875 L 42.9375 90.21875 z M 46.5 94.9375 C 46.58526 94.9208 46.659723 94.9375 46.75 94.9375 L 56.3125 94.9375 C 57.034718 94.9375 57.625 95.496532 57.625 96.21875 L 57.625 99.9375 C 57.625 100.65972 57.034718 101.25 56.3125 101.25 L 46.75 101.25 C 46.027782 101.25 45.4375 100.65972 45.4375 99.9375 L 45.4375 96.21875 C 45.4375 95.586809 45.903187 95.054376 46.5 94.9375 z "/>
</svg>