<?xml version="1.0" standalone="no"?>
<!DOCTYPE svg PUBLIC "-//W3C//DTD SVG 20010904//EN"
 "http://www.w3.org/TR/2001/REC-SVG-20010904/DTD/svg10.dtd">
<svg version="1.0" xmlns="http://www.w3.org/2000/svg"
 width="90.000000pt" height="90.000000pt" viewBox="0 0 90.000000 90.000000"
 preserveAspectRatio="xMidYMid meet">

<g transform="translate(0.000000,90.000000) scale(0.100000,-0.100000)"
fill="#000000" stroke="none">
<path d="M427 834 c-4 -4 -7 -15 -7 -25 0 -38 -70 -49 -84 -14 -7 19 -42 19
-49 1 -3 -8 -3 -23 0 -34 6 -26 -42 -61 -60 -43 -6 6 -21 11 -34 11 -17 0 -23
-6 -23 -23 0 -13 5 -28 11 -34 18 -18 -17 -66 -43 -60 -47 13 -65 -24 -28 -56
11 -9 20 -23 20 -30 0 -20 -23 -45 -45 -49 -14 -2 -20 -11 -20 -28 0 -17 6
-26 20 -28 22 -4 45 -29 45 -49 0 -7 -9 -21 -20 -30 -37 -32 -19 -69 28 -56
26 6 61 -42 43 -60 -6 -6 -11 -21 -11 -34 0 -17 6 -23 23 -23 13 0 28 5 34 11
18 18 66 -17 60 -43 -13 -47 24 -65 56 -28 9 11 23 20 30 20 20 0 45 -23 49
-45 2 -14 11 -20 28 -20 17 0 26 6 28 20 4 22 29 45 49 45 7 0 21 -9 30 -20
32 -37 69 -19 56 28 -6 26 42 61 60 43 6 -6 21 -11 34 -11 17 0 23 6 23 23 0
13 -5 28 -11 34 -18 18 17 66 43 60 47 -13 65 24 28 56 -11 9 -20 23 -20 30 0
20 23 45 45 49 14 2 20 11 20 28 0 17 -6 26 -20 28 -22 4 -45 29 -45 49 0 7 9
21 20 30 37 32 19 69 -28 56 -26 -6 -61 42 -43 60 6 6 11 21 11 34 0 17 -6 23
-23 23 -13 0 -28 -5 -34 -11 -18 -18 -66 17 -60 43 13 47 -24 65 -56 28 -9
-11 -23 -20 -30 -20 -20 0 -45 23 -49 45 -3 20 -37 32 -51 19z m-7 -207 c0
-59 -1 -63 -30 -75 -27 -12 -34 -11 -81 15 l-51 28 40 36 c34 30 80 53 115 58
4 1 7 -27 7 -62z m136 36 c17 -7 43 -26 58 -42 l26 -28 -50 -27 c-46 -25 -53
-26 -80 -14 -29 12 -30 16 -30 76 0 70 0 70 76 35z m-226 -213 c0 -32 -5 -38
-50 -63 l-50 -28 -10 26 c-6 14 -10 44 -10 65 0 21 4 51 10 65 l10 26 50 -28
c45 -25 50 -31 50 -63z m358 18 c2 -29 -1 -66 -7 -81 l-11 -28 -50 28 c-45 25
-50 31 -50 63 0 31 5 38 48 62 28 16 51 23 56 18 5 -5 11 -33 14 -62z m-203
-18 c0 -33 -2 -35 -35 -35 -29 0 -36 4 -38 23 -6 40 5 54 40 50 30 -3 33 -6
33 -38z m-92 -102 c25 -12 27 -17 27 -76 0 -61 -1 -63 -22 -57 -47 14 -86 37
-112 64 l-26 27 47 27 c56 31 52 30 86 15z m198 -15 l49 -26 -26 -28 c-26 -27
-65 -50 -111 -64 -22 -6 -23 -4 -23 57 0 56 3 65 23 74 33 17 35 16 88 -13z"/>
</g>
</svg>
